<svg height='100px' width='100px'  fill="#000000" xmlns="http://www.w3.org/2000/svg" viewBox="0 0 255.12 211.65" x="0px" y="0px"><title>GameAsset 55</title><g data-name="Layer 2"><g data-name="Layer 1"><path d="M246.94,53.59l-62.09-49a21.53,21.53,0,0,0-28.66,1.82l-2-1.28a21.51,21.51,0,0,0-29,5.54l-4.64-2.25a21.52,21.52,0,0,0-28.08,8.75l-5.62-2A21.55,21.55,0,0,0,60.33,26.08l-4.17-1a21.55,21.55,0,0,0-25.87,16L.58,167a21.51,21.51,0,0,0,16,25.87l77,18.15a21.78,21.78,0,0,0,5,.59,21.35,21.35,0,0,0,11.27-3.23,21.71,21.71,0,0,0,4.08-3.29,21.47,21.47,0,0,0,11.21-4.92c.22,0,.45,0,.67,0a21.39,21.39,0,0,0,12.3-3.94c.39,0,.77.06,1.15.06a21.45,21.45,0,0,0,11-3.06,21.75,21.75,0,0,0,3.31.28,21.41,21.41,0,0,0,16.85-8.2l80.15-101.6A21.53,21.53,0,0,0,246.94,53.59ZM106.46,203A15.08,15.08,0,0,1,95,204.9L18,186.74A15.17,15.17,0,0,1,6.75,168.5l29.71-126A15.18,15.18,0,0,1,54.7,31.26l77,18.16A15.16,15.16,0,0,1,143,67.66l-29.71,126A15.07,15.07,0,0,1,106.46,203Zm12.42-6.12c.2-.61.38-1.21.53-1.84L149.12,69.12a21.51,21.51,0,0,0-16-25.87L66.72,27.59a15.18,15.18,0,0,1,18-6.41l74.59,26.28a15.18,15.18,0,0,1,9.26,19.35l-43,122.06A15.21,15.21,0,0,1,118.88,196.91Zm11.71-3.81a22.48,22.48,0,0,0,.93-2.13l43-122A21.53,21.53,0,0,0,161.4,41.49L98.54,19.34a15.17,15.17,0,0,1,19.2-5.2l71.14,34.54a15.19,15.19,0,0,1,7,20.27L139.38,185.36A15.17,15.17,0,0,1,130.59,193.1Zm14-4.08c.16-.3.36-.58.51-.89L201.6,71.71A21.53,21.53,0,0,0,191.65,43L131,13.51a15.19,15.19,0,0,1,19.82-3l66.54,42.73a15.18,15.18,0,0,1,4.57,21L152,183.06A15.18,15.18,0,0,1,144.57,189Zm101-109.16L165.38,181.47a15.07,15.07,0,0,1-8.35,5.34,4,4,0,0,0,.24-.33L227.21,77.59a21.53,21.53,0,0,0-6.47-29.71L161.69,10a15.2,15.2,0,0,1,19.24-.38l62.09,49A15.19,15.19,0,0,1,245.53,79.86Z"></path></g></g></svg>