<?xml version="1.0" encoding="UTF-8" standalone="no"?>
<!-- Created with Inkscape (http://www.inkscape.org/) -->

<svg
   width="3.3088603in"
   height="1.1583449in"
   viewBox="0 0 84.045052 29.42196"
   version="1.1"
   id="svg5"
   inkscape:version="1.1.1 (3bf5ae0d25, 2021-09-20)"
   sodipodi:docname="logo_src.svg"
   xmlns:inkscape="http://www.inkscape.org/namespaces/inkscape"
   xmlns:sodipodi="http://sodipodi.sourceforge.net/DTD/sodipodi-0.dtd"
   xmlns="http://www.w3.org/2000/svg"
   xmlns:svg="http://www.w3.org/2000/svg">
  <sodipodi:namedview
     id="namedview7"
     pagecolor="#505050"
     bordercolor="#eeeeee"
     borderopacity="1"
     inkscape:pageshadow="0"
     inkscape:pageopacity="0"
     inkscape:pagecheckerboard="0"
     inkscape:document-units="mm"
     showgrid="false"
     units="in"
     inkscape:zoom="3.0253367"
     inkscape:cx="173.36913"
     inkscape:cy="20.328316"
     inkscape:window-width="2560"
     inkscape:window-height="1356"
     inkscape:window-x="0"
     inkscape:window-y="0"
     inkscape:window-maximized="1"
     inkscape:current-layer="g446"
     fit-margin-top="0"
     fit-margin-left="0"
     fit-margin-right="0"
     fit-margin-bottom="0" />
  <defs
     id="defs2">
    <rect
       x="28.61503"
       y="67.850365"
       width="192.13544"
       height="112.59899"
       id="rect5047" />
  </defs>
  <g
     inkscape:label="Layer 1"
     inkscape:groupmode="layer"
     id="layer1"
     transform="translate(-3.6712303,-10.323973)">
    <g
       style="fill:#000000"
       id="g73"
       transform="matrix(0.52916667,0,0,0.52916667,312.33905,-185.80936)">
      <path
         d="M 0,0 H 24 V 24 H 0 Z"
         fill="none"
         id="path55" />
      <path
         d="m 2.53,19.65 1.34,0.56 v -9.03 l -2.43,5.86 c -0.41,1.02 0.08,2.19 1.09,2.61 z M 22.03,15.95 17.07,3.98 C 16.76,3.23 16.03,2.77 15.26,2.75 15,2.75 14.73,2.79 14.47,2.9 L 7.1,5.95 C 6.35,6.26 5.89,6.98 5.87,7.75 5.86,8.02 5.91,8.29 6.02,8.55 l 4.96,11.97 c 0.31,0.76 1.05,1.22 1.83,1.23 0.26,0 0.52,-0.05 0.77,-0.15 l 7.36,-3.05 c 1.02,-0.42 1.51,-1.59 1.09,-2.6 z m -9.2,3.8 L 7.87,7.79 15.22,4.75 h 0.01 l 4.95,11.95 z"
         id="path57" />
      <circle
         cx="11"
         cy="9"
         r="1"
         id="circle59" />
      <path
         d="m 5.88,19.75 c 0,1.1 0.9,2 2,2 H 9.33 L 5.88,13.41 Z"
         id="path61" />
      <g
         style="fill:#000000"
         id="g446"
         transform="matrix(0.1959862,0,0,0.1959862,-490.86764,374.16032)">
        <path
           d="m 327.75596,53.932307 -83.2336,-65.686046 a 28.861644,28.861644 0 0 0 -38.41964,2.4397672 l -2.68106,-1.7158802 a 28.834833,28.834833 0 0 0 -38.87541,7.4265452 l -6.22007,-3.016196 a 28.848239,28.848239 0 0 0 -37.64213,11.729651 l -7.53378,-2.681063 A 28.888455,28.888455 0 0 0 77.599372,17.054284 L 72.009355,15.713752 A 28.888455,28.888455 0 0 0 37.329804,37.162257 L -2.4973811,205.96199 a 28.834833,28.834833 0 0 0 21.4485041,34.67955 l 103.220917,24.33065 a 29.196777,29.196777 0 0 0 6.70266,0.79091 28.620348,28.620348 0 0 0 15.10779,-4.32991 29.10294,29.10294 0 0 0 5.46937,-4.41035 28.781212,28.781212 0 0 0 15.02736,-6.59542 c 0.29492,0 0.60324,0 0.89816,0 a 28.67397,28.67397 0 0 0 16.48853,-5.28169 c 0.52281,0 1.03221,0.0804 1.54161,0.0804 a 28.754402,28.754402 0 0 0 14.74585,-4.10203 29.156561,29.156561 0 0 0 4.43716,0.37535 28.70078,28.70078 0 0 0 22.58796,-10.99236 L 332.62209,94.309117 a 28.861644,28.861644 0 0 0 -4.86613,-40.37681 z M 139.43809,254.22113 a 20.215216,20.215216 0 0 1 -15.36249,2.54701 L 20.854678,232.42408 A 20.335864,20.335864 0 0 1 5.7736982,207.97279 L 45.600884,39.065812 A 20.349269,20.349269 0 0 1 70.052179,23.998237 L 173.27311,48.34229 a 20.322458,20.322458 0 0 1 15.148,24.451295 L 148.59392,241.70056 a 20.20181,20.20181 0 0 1 -9.15583,12.52057 z m 16.6494,-8.20406 c 0.26811,-0.81772 0.5094,-1.62204 0.71048,-2.46657 L 196.62517,74.750761 A 28.834833,28.834833 0 0 0 175.17666,40.07121 L 86.165368,19.078487 a 20.349269,20.349269 0 0 1 24.129572,-8.592808 l 99.99024,35.229169 A 20.349269,20.349269 0 0 1 222.6985,71.654134 L 165.05565,235.27942 a 20.389485,20.389485 0 0 1 -8.96816,10.77787 z m 15.69763,-5.10742 a 30.135149,30.135149 0 0 0 1.24669,-2.85533 L 230.67467,74.509466 A 28.861644,28.861644 0 0 0 213.08689,37.711875 L 128.82108,8.0191012 a 20.335864,20.335864 0 0 1 25.73821,-6.970764 L 249.9247,47.350297 a 20.362674,20.362674 0 0 1 9.38372,27.172574 L 183.56839,230.57415 a 20.335864,20.335864 0 0 1 -11.78327,10.37571 z m 18.76744,-5.46937 c 0.21448,-0.40216 0.48259,-0.77751 0.68367,-1.19307 L 266.97626,78.222738 A 28.861644,28.861644 0 0 0 253.63797,39.736078 L 172.33473,0.20380219 A 20.362674,20.362674 0 0 1 198.90407,-3.8177918 L 288.10304,53.46312 a 20.349269,20.349269 0 0 1 6.12623,28.151163 L 200.4859,227.49093 a 20.349269,20.349269 0 0 1 -9.96015,7.96275 z M 325.94624,89.107854 218.42221,225.35948 a 20.20181,20.20181 0 0 1 -11.19344,7.15844 5.3621262,5.3621262 0 0 0 0.32173,-0.44237 L 301.30727,86.105064 A 28.861644,28.861644 0 0 0 292.63403,46.277872 L 213.47565,-4.5014628 a 20.376079,20.376079 0 0 1 25.79182,-0.509402 L 322.50108,60.67518 a 20.362674,20.362674 0 0 1 3.36473,28.47289 z"
           id="path430"
           style="stroke-width:1.34053" />
        <text
           xml:space="preserve"
           transform="matrix(2.5512,0,0,2.5512,-553.24936,-154.23654)"
           id="text5045"
           style="font-style:normal;font-variant:normal;font-weight:normal;font-stretch:normal;font-size:74.6667px;line-height:1.25;font-family:Ubuntu;-inkscape-font-specification:Ubuntu;white-space:pre;shape-inside:url(#rect5047);fill:#000000;fill-opacity:1;stroke:none"><tspan
             x="28.615234"
             y="137.47573"
             id="tspan35039"><tspan
               style="font-weight:bold;-inkscape-font-specification:'Ubuntu Bold'"
               id="tspan35037">deck</tspan></tspan></text>
      </g>
    </g>
  </g>
</svg>
